<svg height="512pt" viewBox="0 -16 512 512" width="512pt" xmlns="http://www.w3.org/2000/svg"><path d="m277.332031 106.667969h106.667969c11.78125 0 21.332031-9.550781 21.332031-21.335938v-85.332031h-42.664062v64h-106.667969c-11.78125 0-21.332031 9.550781-21.332031 21.332031v42.667969h42.664062zm0 0"/><path d="m192 405.332031h42.667969v21.335938h-42.667969zm0 0"/><path d="m384 149.332031h-256c-70.660156.082031-127.921875 57.339844-128 128 0 43.6875 28.171875 134.90625 32.5625 148.839844 4.285156 18.222656 15.707031 33.964844 31.703125 43.691406 15.996094 9.726563 35.226563 12.621094 53.378906 8.039063 31.179688-7.753906 53.054688-35.769532 53.023438-67.898438v-26.003906h170.664062v21.332031h.496094l.101563 4.445313c-.402344 32.238281 21.457031 60.503906 52.761718 68.21875 37.578125 9.039062 75.40625-13.964844 84.671875-51.488282 4.390625-13.972656 32.636719-105.488281 32.636719-149.175781-.078125-70.660156-57.339844-127.917969-128-128zm0 64c11.78125 0 21.332031 9.550781 21.332031 21.335938 0 11.78125-9.550781 21.332031-21.332031 21.332031s-21.332031-9.550781-21.332031-21.332031c0-11.785157 9.550781-21.335938 21.332031-21.335938zm-192 85.335938h-42.667969v42.664062h-42.664062v-42.664062h-42.667969v-42.667969h42.667969v-42.667969h42.664062v42.667969h42.667969zm149.332031 0c-11.78125 0-21.332031-9.550781-21.332031-21.335938 0-11.78125 9.550781-21.332031 21.332031-21.332031 11.785157 0 21.335938 9.550781 21.335938 21.332031 0 11.785157-9.550781 21.335938-21.335938 21.335938zm42.667969 42.664062c-11.78125 0-21.332031-9.550781-21.332031-21.332031s9.550781-21.332031 21.332031-21.332031 21.332031 9.550781 21.332031 21.332031-9.550781 21.332031-21.332031 21.332031zm42.667969-42.664062c-11.785157 0-21.335938-9.550781-21.335938-21.335938 0-11.78125 9.550781-21.332031 21.335938-21.332031 11.78125 0 21.332031 9.550781 21.332031 21.332031 0 11.785157-9.550781 21.335938-21.332031 21.335938zm0 0"/><path d="m277.332031 405.332031h42.667969v21.335938h-42.667969zm0 0"/></svg>